<?xml version="1.0" encoding="ISO-8859-1"?>
<!DOCTYPE svg PUBLIC "-//W3C//DTD SVG 1.1//EN" "http://www.w3.org/Graphics/SVG/1.1/DTD/svg11.dtd">
<svg xmlns="http://www.w3.org/2000/svg" xml:space="preserve" version="1.1" overflow="visible" xmlns:xlink="http://www.w3.org/1999/xlink" viewBox="0 0 221.025 265.366">
  <title>Semantic Web symbol with text</title>
  <desc>The Semantic Web symbol, ie the drawing of a cube whose top part is slightly peeled off, with the text 'Semantic Web' underneath</desc>
  <metadata>
	<rdf:RDF xmlns:rdf="http://www.w3.org/1999/02/22-rdf-syntax-ns#" xmlns:rdfs="http://www.w3.org/2000/01/rdf-schema#" xmlns:xhtml="http://www.w3.org/1999/xhtml/vocab#" xmlns:cc="http://creativecommons.org/ns#" xmlns:dc="http://purl.org/dc/elements/1.1/">
		<cc:Work rdf:about="">
	        <dc:title>Semantic Web symbol with text</dc:title>
	        <dc:format>image/svg+xml</dc:format>
			<rdfs:seeAlso rdf:resource="http://www.w3.org/2007/10/sw-logos.html"/>
	        <dc:date>2007-11-01</dc:date>
			<xhtml:license rdf:resource="http://www.w3.org/Consortium/Legal/2002/copyright-documents-20021231"/>
			<cc:morePermissions rdf:resource="http://www.w3.org/2007/10/sw-logos.html#LogoWithoutW3C"/>
			<cc:attributionURL rdf:reource="http://www.w3.org/2001/sw/"/>
			<dc:description>The Semantic Web symbol, ie the drawing of a cube whose top part is slightly peeled off, with the text 'Semantic Web' underneath
			</dc:description>
		</cc:Work>
	</rdf:RDF>
  </metadata>
  <text x="0" y="210" font-size="48" fill-opacity="0" font-family="Trebuchet" font-weight="bold">Semantic <tspan x="45" y="250" letter-spacing="4">Web</tspan></text>

  <g shape-rendering="geometricPrecision" text-rendering="geometricPrecision" image-rendering="optimizeQuality">
    <g>
      <g>
        <g>
          <path d="M107.185,223.804l-14.027,41.563h-5.657l-8.415-24.188l-8.626,24.188h-5.704l-13.745-41.563h10.122     l6.732,22.75l7.714-22.75h6.99l7.573,22.75l7.037-22.75H107.185z" fill="#005A9C"/>
          <path d="M132.587,252.304h-16.766c0.326,1.837,1.129,3.338,2.408,4.503s2.729,1.747,4.35,1.747     c2.838,0,5.973-1.007,9.402-3.021v6.621c-1.23,0.813-2.721,1.553-4.471,2.217c-1.75,0.663-3.98,0.996-6.688,0.996     c-2.926,0-5.416-0.69-7.471-2.071s-3.592-3.255-4.611-5.622s-1.529-5.05-1.529-8.048c0-2.959,0.51-5.607,1.529-7.945     s2.555-4.172,4.609-5.504c2.055-1.331,4.545-1.997,7.471-1.997c1.93,0,3.793,0.526,5.592,1.579     c1.797,1.053,3.275,2.775,4.436,5.166c1.158,2.392,1.738,5.477,1.738,9.255V252.304z M124.712,247.054     c0-1.918-0.379-3.449-1.137-4.595c-0.76-1.145-1.85-1.718-3.273-1.718c-1.408,0-2.545,0.583-3.412,1.747     c-0.869,1.165-1.303,2.687-1.303,4.565H124.712z" fill="#005A9C"/>
          <path d="M163.546,249.97c0,3.494-0.537,6.392-1.611,8.69c-1.074,2.3-2.443,3.992-4.109,5.078     c-1.666,1.085-3.363,1.628-5.092,1.628c-1.246,0-2.324-0.183-3.234-0.548c-0.912-0.365-1.621-0.76-2.127-1.185     s-1.031-0.934-1.576-1.526v2.696h-8.375v-41h8.375v12.681c0.623-0.61,1.48-1.147,2.57-1.61s2.35-0.695,3.783-0.695     c1.914,0,3.604,0.439,5.068,1.316c1.463,0.877,2.658,2.065,3.584,3.563s1.615,3.179,2.066,5.042S163.546,247.92,163.546,249.97z      M154.671,249.732c0-2.583-0.459-4.55-1.375-5.901s-2.002-2.027-3.26-2.027s-2.672,0.642-4.24,1.923v11.51     c1.18,1.42,2.594,2.13,4.24,2.13c1.039,0,2.072-0.537,3.098-1.612C154.16,254.68,154.671,252.672,154.671,249.732z" fill="#005A9C"/>
        </g>
      </g>
      <g>
        <path d="M118.161,17.833C165.051,38.963,175.276,0,175.276,0s-8.906,48.871-50.02,68.834    c-8.377,4.073-13.579,6.256-13.579,6.256L44.325,42.259l67.353-27.62C111.677,14.639,110.052,14.179,118.161,17.833z" fill="#86BA0C"/>
        <polygon points="103.829,160.953 41.073,126.977 41.073,56.906 103.829,88.805" fill="#EF7C00"/>
        <polygon points="117.944,160.953 180.696,126.977 180.696,56.906 117.944,88.805" fill="#BD1789"/>
      </g>
      <g>
        <g>
          <path d="M23.875,200.056c0,2.57-0.518,4.794-1.551,6.672s-2.476,3.316-4.325,4.314     c-1.85,0.997-3.972,1.497-6.365,1.497c-0.668,0-1.488-0.055-2.46-0.163c-0.972-0.109-2.262-0.41-3.87-0.905     c-1.609-0.494-3.284-1.227-5.024-2.196v-10.075c1.631,1.281,3.235,2.346,4.813,3.193c1.577,0.848,3.267,1.271,5.069,1.271     c1.662,0,2.738-0.35,3.229-1.05c0.489-0.699,0.734-1.355,0.734-1.967c0-1.104-0.422-2.035-1.264-2.794s-2.066-1.543-3.673-2.352     c-1.769-0.946-3.319-1.977-4.653-3.091s-2.423-2.51-3.268-4.187C0.422,186.548,0,184.565,0,182.277     c0-2.209,0.427-4.205,1.282-5.99c0.854-1.785,2.16-3.21,3.917-4.275c1.756-1.064,3.901-1.598,6.435-1.598     c1.803,0,3.47,0.223,5.001,0.666c1.531,0.444,2.794,0.942,3.789,1.495c0.994,0.553,1.679,0.987,2.052,1.303v9.616     c-1.324-1.202-2.799-2.276-4.426-3.223s-3.366-1.42-5.219-1.42c-1.215,0-2.094,0.296-2.639,0.888s-0.817,1.32-0.817,2.188     c0,0.809,0.272,1.509,0.818,2.101s1.521,1.311,2.926,2.158c2.488,1.479,4.479,2.81,5.973,3.992     c1.493,1.184,2.664,2.549,3.512,4.097S23.875,197.749,23.875,200.056z" fill="#005A9C"/>
          <path d="M53.529,199.477H36.762c0.327,1.837,1.13,3.338,2.409,4.503c1.278,1.165,2.729,1.747,4.35,1.747     c2.838,0,5.972-1.007,9.402-3.021v6.621c-1.23,0.813-2.721,1.553-4.471,2.217c-1.751,0.663-3.98,0.996-6.688,0.996     c-2.926,0-5.416-0.69-7.471-2.071s-3.591-3.255-4.61-5.622s-1.529-5.05-1.529-8.048c0-2.959,0.509-5.607,1.528-7.945     s2.556-4.172,4.61-5.504c2.055-1.331,4.545-1.997,7.471-1.997c1.93,0,3.793,0.526,5.591,1.579     c1.797,1.053,3.275,2.775,4.436,5.166c1.159,2.392,1.739,5.477,1.739,9.255V199.477z M45.654,194.227     c0-1.918-0.38-3.449-1.138-4.595c-0.759-1.145-1.85-1.718-3.272-1.718c-1.408,0-2.546,0.583-3.413,1.747     c-0.868,1.165-1.302,2.687-1.302,4.565H45.654z" fill="#005A9C"/>
          <path d="M100.06,211.977h-8.375v-16.028c0-2.125-0.278-3.715-0.835-4.768s-1.438-1.579-2.644-1.579     c-1.176,0-2.139,0.448-2.891,1.344s-1.504,2.021-2.256,3.379v17.652h-8.375v-16.028c0-2.027-0.259-3.592-0.775-4.693     c-0.518-1.102-1.434-1.653-2.75-1.653c-0.627,0-1.202,0.158-1.728,0.473s-0.952,0.669-1.281,1.063s-0.729,0.974-1.198,1.741     s-0.768,1.25-0.893,1.446v17.652h-8.375v-30.125h8.375v4.367c1.263-1.701,2.549-2.938,3.859-3.71     c1.31-0.771,2.822-1.157,4.537-1.157c0.811,0,1.583,0.095,2.315,0.282s1.454,0.509,2.164,0.964     c0.709,0.455,1.353,1.079,1.93,1.87c0.576,0.791,1.036,1.711,1.38,2.76c1.355-1.938,2.763-3.402,4.22-4.392     s3.136-1.484,5.038-1.484c1.901,0,3.495,0.483,4.782,1.448c1.285,0.966,2.236,2.36,2.852,4.183     c0.615,1.823,0.924,4.035,0.924,6.637V211.977z" fill="#005A9C"/>
          <path d="M129.744,210.494c-1.227,0.613-2.361,1.107-3.4,1.482c-1.041,0.374-2.291,0.563-3.752,0.563     c-1.383,0-2.346-0.312-2.889-0.934s-0.932-1.378-1.164-2.268c-0.906,0.93-1.912,1.695-3.02,2.298     c-1.109,0.602-2.561,0.903-4.354,0.903c-1.732,0-3.133-0.38-4.201-1.138c-1.069-0.758-1.818-1.714-2.247-2.866     c-0.43-1.152-0.644-2.34-0.644-3.562c0-1.852,0.37-3.383,1.111-4.595c0.741-1.211,1.736-2.201,2.985-2.97     c1.248-0.769,2.903-1.566,4.965-2.395c1.17-0.473,2.055-0.832,2.656-1.078s1.049-0.438,1.346-0.576     c0.297-0.138,0.609-0.315,0.938-0.532c0-1.456-0.234-2.598-0.703-3.424s-1.484-1.24-3.045-1.24c-1.843,0-3.553,0.513-5.129,1.538     c-1.577,1.025-3.021,2.346-4.333,3.962v-8.178c1.043-0.951,2.172-1.729,3.387-2.335c1.215-0.604,2.483-1.056,3.808-1.354     c1.324-0.297,2.664-0.446,4.02-0.446c3.441,0,6.029,0.844,7.766,2.529s2.605,4.008,2.605,6.966v11.624     c0,1.104,0.08,1.928,0.244,2.47c0.164,0.543,0.465,0.813,0.9,0.813c0.529,0,1.246-0.285,2.15-0.857V210.494z M118.074,204.723     v-7.121c-2.018,1.024-3.49,1.945-4.42,2.763s-1.394,1.925-1.394,3.323c0,1.004,0.232,1.772,0.697,2.304     c0.466,0.532,1.005,0.798,1.618,0.798c0.582,0,1.162-0.201,1.736-0.604C116.888,205.781,117.474,205.294,118.074,204.723z" fill="#005A9C"/>
          <path d="M158.441,211.977h-8.375v-15.586v-0.62c0-1.652-0.215-3.094-0.646-4.324     c-0.432-1.229-1.375-1.845-2.832-1.845c-0.689,0-1.297,0.163-1.82,0.487c-0.525,0.324-0.996,0.742-1.41,1.254     c-0.416,0.512-0.764,1.004-1.047,1.477c-0.281,0.473-0.572,0.974-0.869,1.505v17.652h-8.375v-30.125h8.375v4.367     c1.324-1.801,2.654-3.062,3.986-3.784c1.334-0.722,2.818-1.083,4.455-1.083c5.705,0,8.559,4.316,8.559,12.947V211.977z" fill="#005A9C"/>
          <path d="M182.312,210.251c-0.873,0.535-2.078,1.051-3.613,1.546c-1.535,0.494-3.004,0.742-4.406,0.742     c-6.02,0-9.029-3.757-9.029-11.271v-12.042h-3.811v-1.858l11.234-14.517h0.951v9h8.041v7.375h-8.041v9.658     c0,1.126,0.055,2.034,0.164,2.726s0.416,1.269,0.924,1.732c0.506,0.465,1.273,0.696,2.303,0.696c1.34,0,3.1-0.709,5.283-2.129     V210.251z" fill="#005A9C"/>
          <path d="M194.843,211.977h-8.375v-30.125h8.375V211.977z M194.171,174.897c0,1.239-0.35,2.291-1.045,3.156     s-1.523,1.298-2.482,1.298c-0.65,0-1.242-0.196-1.775-0.59c-0.533-0.393-0.955-0.929-1.264-1.607     c-0.309-0.678-0.463-1.431-0.463-2.257c0-1.219,0.34-2.271,1.02-3.156c0.682-0.885,1.508-1.327,2.482-1.327     c0.959,0,1.787,0.442,2.482,1.327S194.171,173.679,194.171,174.897z" fill="#005A9C"/>
          <path d="M221.025,210.607c-0.701,0.337-1.441,0.649-2.221,0.937s-1.656,0.524-2.631,0.713     c-0.975,0.188-2.037,0.282-3.189,0.282c-2.604,0-4.807-0.558-6.609-1.672s-3.191-2.515-4.168-4.201     c-0.975-1.687-1.65-3.408-2.025-5.164s-0.561-3.304-0.561-4.646c0-1.341,0.189-2.89,0.572-4.646s1.051-3.452,2.002-5.089     c0.953-1.637,2.33-3.008,4.133-4.113c1.803-1.104,4.021-1.657,6.656-1.657c1.76,0,3.193,0.159,4.301,0.476     c1.105,0.317,2.229,0.743,3.365,1.278v8.402c-2.742-1.104-4.885-1.656-6.428-1.656c-1.496,0-2.824,0.569-3.986,1.707     c-1.16,1.139-1.74,2.904-1.74,5.299c0,1.59,0.287,2.929,0.863,4.018c0.576,1.09,1.309,1.89,2.197,2.399s1.777,0.765,2.666,0.765     c0.842,0,1.799-0.157,2.875-0.473s2.385-0.769,3.928-1.36V210.607z" fill="#005A9C"/>
        </g>
      </g>
    </g>
  </g>
</svg>
