<?xml version="1.0" encoding="utf-8"?>
<!-- Generator: Adobe Illustrator 26.0.3, SVG Export Plug-In . SVG Version: 6.00 Build 0)  -->
<svg version="1.1" id="Layer_1" xmlns="http://www.w3.org/2000/svg" xmlns:xlink="http://www.w3.org/1999/xlink" x="0px" y="0px"
	 viewBox="0 0 100 100" style="enable-background:new 0 0 100 100;" xml:space="preserve">
<style type="text/css">
	.st0{fill:#3B7F9A;}
	.st1{fill:#FFFFFF;}
</style>
<g>
	<path class="st0" d="M85.92,97.83H14.08c-6.58,0-11.91-5.33-11.91-11.91V14.08C2.17,7.5,7.5,2.17,14.08,2.17h71.84
		c6.58,0,11.91,5.33,11.91,11.91v71.84C97.83,92.5,92.5,97.83,85.92,97.83z"/>
	<g>
		<polygon class="st1" points="60.56,24.66 44.97,76.97 44.88,77.18 40.62,89.39 16.11,53.1 36.61,67.21 		"/>
	</g>
	<g>
		<path class="st1" d="M80.66,62.77c-16.97,24.25-44.72,38.53-62,31.89c-1.68-0.63-3.19-1.47-4.55-2.44
			c0.71,0.39,1.45,0.75,2.25,1.06c14,5.37,36.48-6.18,50.22-25.83c13.75-19.64,13.55-39.93-0.44-45.31
			c-14-5.38-36.48,6.18-50.23,25.83C8.8,58.14,5.44,68.47,5.77,76.83C4.51,66.12,8.61,52.3,18.11,38.73
			C35.08,14.47,62.84,0.19,80.11,6.83C97.39,13.48,97.64,38.52,80.66,62.77z"/>
	</g>
</g>
</svg>
